<svg preserveAspectRatio="none" width="100%" height="100%" overflow="visible" style="display: block;" viewBox="0 0 205 199" fill="none" xmlns="http://www.w3.org/2000/svg">
<g id="Group 610">
<path id="Vector" d="M188.634 46.1426C192.947 50.1296 193.079 57.5847 188.96 65.611C184.675 74.0438 179.36 77.2141 170.412 77.5963C166.51 77.7572 161.899 77.379 156.396 76.675C152.03 76.1037 147.07 75.3191 141.457 74.4501C139.397 74.1242 137.253 73.7983 135.032 73.4483L135.901 67.4577C149.134 69.6544 156.858 68.1095 157.401 67.9727L161.223 67.16L160.411 63.3661C159.678 59.8136 158.323 55.5288 156.669 50.9463C173.289 41.0492 184.055 41.9182 188.638 46.1466L188.634 46.1426Z" fill="var(--fill-0, white)"/>
<path id="Vector_2" d="M168.216 109.046C168.787 109.722 169.491 110.864 169.193 113.033C168.815 116.203 167.134 118.565 164.257 120.001C158.673 122.822 149.886 121.735 141.944 117.237C140.045 116.179 137.659 116.831 136.601 118.702C135.543 120.601 136.195 122.986 138.094 124.045C143.219 126.917 148.586 128.655 153.684 129.17C152.083 139.176 146.418 148.341 137.933 154.521C128.092 161.65 115.455 164.201 102.359 161.65C94.3612 160.105 88.6683 156.822 84.6289 152.839C73.3478 141.723 74.8122 125.022 74.8404 124.805L75.2749 120.737L71.2074 120.44C70.9379 120.44 64.565 119.925 60.2803 114.232C58.1118 111.383 56.8364 107.698 56.43 103.224C56.0519 90.6436 71.9919 84.7616 76.683 95.3066C80.0706 102.898 90.6477 99.9977 94.3893 97.1251C100.489 92.434 100.328 86.1979 96.1515 77.8739C100.951 77.7129 106.185 77.8215 111.798 78.3084C110.281 79.4188 109.223 80.316 108.925 80.5574C107.272 81.9655 107.083 84.4358 108.491 86.0611C109.251 86.9825 110.362 87.4451 111.448 87.4451C112.341 87.4451 113.266 87.1193 113.995 86.4957C116.65 84.2467 121.912 80.5574 125.219 79.9338C130.643 80.6941 135.684 81.4787 140.266 82.1827C145.718 83.0236 150.707 83.8081 155.289 84.3794C154.963 87.6342 155.128 92.8122 155.289 96.5819C153.499 96.3928 151.873 96.2842 150.489 96.2037C149.946 96.1514 149.459 96.1233 149.025 96.0951C146.856 95.9342 144.986 97.5314 144.821 99.6999C144.66 101.84 146.285 103.711 148.426 103.876C148.888 103.928 149.403 103.957 149.97 103.985C154.416 104.282 164.856 104.962 168.216 109.054V109.046ZM141.538 138.898C143.517 138.058 144.438 135.752 143.598 133.773C142.757 131.793 140.451 130.872 138.472 131.713C133.998 133.636 130.257 133.962 127.328 132.743C124.725 131.657 123.232 129.516 122.476 128.08C123.047 127.267 123.614 126.318 124.21 125.123C125.211 123.2 124.455 120.838 122.528 119.864C120.605 118.863 118.243 119.619 117.27 121.546C115.861 124.286 115.616 124.366 114.204 124.773C113.443 124.99 112.494 125.26 111.331 125.75C109.352 126.619 108.459 128.921 109.324 130.9C109.947 132.365 111.383 133.258 112.904 133.258C113.419 133.258 113.962 133.149 114.449 132.932C114.992 132.686 115.451 132.554 115.942 132.417C117.378 134.911 119.981 138.138 124.294 139.952C126.41 140.846 128.687 141.28 131.126 141.28C134.352 141.28 137.824 140.496 141.538 138.894V138.898ZM129.878 99.5028C131.91 95.218 131.641 90.8528 129.283 89.7143C126.925 88.6038 123.373 91.1505 121.337 95.4071C119.305 99.6919 119.547 104.057 121.908 105.196C124.266 106.306 127.847 103.759 129.878 99.5028Z" fill="var(--fill-0, white)"/>
<path id="Vector_3" d="M132.996 16.7528C136.167 22.8279 142.081 35.1913 146.716 46.7662C131.83 45.873 109.843 47.3093 102.738 47.8243C90.4265 42.0509 79.1212 38.6312 68.5199 37.6012C68.5199 36.6236 68.4676 35.65 68.4395 34.6723C68.0613 22.6348 68.3027 15.2038 74.7036 13.7675C78.9602 12.7899 82.1346 13.7675 86.1739 14.9866C91.3518 16.5315 97.7769 18.4828 107.594 16.3424C110.74 15.6665 113.584 14.9343 116.079 14.2825C127.766 11.2731 130.067 11.1927 132.996 16.7488V16.7528Z" fill="var(--fill-0, white)"/>
<path id="Vector_4" d="M135.897 67.4536L135.028 73.4442C130.285 72.7401 125.103 71.9797 119.547 71.2475C99.6437 68.6726 81.9133 69.948 66.8382 75.0977C54.692 79.2175 46.9352 84.9668 42.57 89.0343C39.0738 92.2891 33.57 95.2984 28.2553 95.6766C27.2535 95.7289 26.2477 95.7048 25.2741 95.568C21.1261 94.9726 17.6541 92.3695 14.9424 87.8152C12.2871 83.3695 11.6071 78.9762 12.8543 74.3937C14.9424 66.6932 22.7515 58.6145 34.2741 52.2417C40.6992 48.7174 49.3773 45.1125 61.3867 45.1125C72.0161 45.1125 85.2445 47.9328 101.812 56.0678C115.342 62.682 126.865 65.9368 135.893 67.4536H135.897Z" fill="var(--fill-0, white)"/>
<g id="Union">
<mask id="path-5-outside-1_7352_11872" maskUnits="userSpaceOnUse" x="-0.573958" y="-0.577095" width="205" height="176" fill="black">
<rect fill="white" x="-0.573958" y="-0.577095" width="205" height="176"/>
<path d="M114.123 6.7188C125.159 3.87037 133.89 1.62129 139.908 13.1436C143.244 19.5164 149.126 31.7712 153.845 43.5391C170.682 33.8594 185.54 32.6692 193.92 40.4219C200.916 46.8752 201.701 57.8822 195.928 69.1631C189.962 80.8225 181.991 84.8624 170.606 85.2969L170.416 77.5967C179.364 77.2185 184.679 74.044 188.964 65.6114C193.084 57.5851 192.951 50.1297 188.638 46.1426C184.055 41.9142 173.293 41.0453 156.669 50.9424C158.323 55.5249 159.678 59.8099 160.41 63.3624L161.224 67.1563L157.402 67.9688C156.858 68.1056 149.134 69.6507 135.902 67.4542C126.874 65.9374 115.351 62.6825 101.821 56.0684C85.2529 47.9334 72.0242 45.1124 61.3948 45.1124C49.3855 45.1124 40.7076 48.7179 34.2825 52.2422C22.76 58.615 14.9507 66.6932 12.8626 74.3936C11.6154 78.9761 12.2911 83.3698 14.9505 87.8155C17.6621 92.3697 21.1346 94.973 25.2825 95.5684C26.2599 95.7051 27.2614 95.7291 28.263 95.6768V95.6836C33.5753 95.3031 39.0751 92.2953 42.5696 89.042C46.9348 84.9745 54.688 79.2253 66.8382 75.1055C81.9132 69.9558 99.6442 68.681 119.547 71.2559C125.107 71.9881 130.285 72.7482 135.029 73.4522C137.253 73.8062 139.394 74.1283 141.453 74.4542C147.065 75.3231 152.026 76.1065 156.391 76.6778L156.396 76.6465C161.899 77.3506 166.51 77.7334 170.412 77.5684L170.602 85.2686C168.244 85.3772 165.749 85.321 163.066 85.1319C162.82 87.409 162.906 92.8844 163.175 97.8731C167.46 98.9594 171.58 100.803 174.263 104.029C176.512 106.769 177.433 110.213 176.947 114.007C176.242 119.756 172.959 124.339 167.782 126.966C165.883 127.887 163.822 128.567 161.625 128.945C160.024 141.526 153.084 153.128 142.511 160.805C139.123 163.271 135.434 165.279 131.556 166.796L123.719 169.161C120.006 169.974 116.127 170.408 112.197 170.408C108.483 170.408 104.685 170.03 100.863 169.298C90.6749 167.32 83.384 162.931 78.263 157.569L78.2522 157.578C73.1266 152.183 69.7592 145.335 68.5442 139.848C67.3358 134.389 67.0308 131.268 67.0276 131.234C66.919 129.935 66.8665 128.688 66.8665 127.545C63.3703 126.595 58.1639 124.346 54.1487 119.084C49.4577 112.957 47.6675 104.496 48.8059 93.9512C48.4802 94.2207 48.1826 94.4943 47.885 94.7637C43.5721 98.8031 36.2815 103.06 28.5247 103.466L28.5237 103.458C28.0923 103.509 27.661 103.51 27.2337 103.51C26.2319 103.51 25.2012 103.458 24.1673 103.293C17.6618 102.372 12.1304 98.3838 8.22389 91.7979C4.48246 85.5098 3.50407 78.9724 5.29421 72.3585C8.92717 59.0175 22.6466 49.7474 30.5081 45.4063C40.0512 40.1479 50.0295 37.4083 60.7112 37.2715C60.683 36.4871 60.6583 35.6985 60.6301 34.9141C60.2761 23.4198 59.8176 9.10056 72.9934 6.11919C79.2574 4.73526 83.9206 6.1472 88.4465 7.50298C93.4072 8.99559 98.0987 10.4322 105.936 8.6983C108.917 8.04653 111.685 7.3424 114.123 6.7188ZM111.794 78.3047C106.182 77.8179 100.947 77.7092 96.1477 77.8702C100.324 86.1941 100.484 92.4301 94.385 97.1211C90.6432 99.9937 80.0705 102.894 76.679 95.3028C71.9879 84.7538 56.0438 90.6401 56.426 103.221C56.8324 107.694 58.1082 111.379 60.2766 114.228C64.561 119.92 70.9328 120.436 71.2034 120.436L75.2708 120.733L74.8362 124.801C74.808 125.018 73.3456 141.706 84.6135 152.822L84.6253 152.815C88.6646 156.802 94.3575 160.081 102.356 161.626C115.451 164.173 128.084 161.625 137.929 154.496C146.414 148.312 152.083 139.152 153.68 129.147C148.583 128.632 143.216 126.897 138.09 124.021C136.191 122.962 135.543 120.577 136.597 118.678C137.655 116.807 140.041 116.155 141.94 117.213C149.886 121.715 158.669 122.798 164.253 119.978C167.126 118.541 168.808 116.183 169.19 113.009C169.487 110.84 168.783 109.701 168.212 109.022C164.868 104.95 154.533 104.259 150.044 103.958L149.966 103.952L149.907 103.949C149.36 103.922 148.864 103.898 148.421 103.844C146.281 103.683 144.652 101.812 144.817 99.668C144.978 97.4995 146.848 95.8986 149.021 96.0635C149.455 96.0917 149.942 96.1156 150.486 96.1719C151.87 96.2524 153.495 96.3608 155.285 96.5499C155.125 92.7904 154.96 87.6304 155.282 84.3741C150.701 83.8028 145.712 83.0194 140.262 82.1788C135.68 81.4747 130.638 80.6861 125.215 79.9297C121.908 80.5535 116.646 84.2423 113.99 86.4913C113.258 87.1149 112.337 87.4415 111.444 87.4415C110.358 87.4414 109.247 86.9788 108.487 86.0577C107.079 84.4324 107.268 81.9619 108.921 80.5538C109.219 80.3083 110.277 79.4152 111.794 78.3047ZM117.27 121.55C118.247 119.627 120.605 118.867 122.528 119.868C124.451 120.846 125.211 123.204 124.209 125.127C123.614 126.322 123.043 127.267 122.476 128.084C123.236 129.52 124.725 131.665 127.327 132.747C130.256 133.966 133.998 133.64 138.472 131.717C140.451 130.876 142.757 131.797 143.598 133.776V133.773C144.439 135.752 143.517 138.058 141.537 138.898C137.824 140.5 134.352 141.284 131.125 141.284C128.683 141.284 126.406 140.849 124.294 139.956C119.981 138.138 117.382 134.915 115.942 132.421C115.455 132.558 114.992 132.69 114.449 132.936C113.963 133.153 113.419 133.262 112.905 133.262C111.388 133.262 109.947 132.369 109.324 130.904C108.454 128.925 109.352 126.62 111.331 125.755C112.498 125.268 113.447 124.994 114.203 124.776C115.612 124.37 115.858 124.29 117.27 121.55ZM121.333 95.4073C123.365 91.151 126.917 88.6 129.279 89.7139C131.636 90.8525 131.91 95.2182 129.874 99.503C127.843 103.759 124.262 106.31 121.905 105.195C119.547 104.057 119.302 99.692 121.333 95.4073ZM132.996 16.753C130.067 11.1929 127.762 11.2768 116.078 14.2862C113.584 14.9379 110.736 15.6709 107.594 16.3467C97.7774 18.4871 91.352 16.5352 86.1741 14.9903C82.1348 13.7712 78.96 12.7939 74.7034 13.7715C68.3067 15.208 68.0615 22.6394 68.4397 34.6768C68.4679 35.6543 68.5198 36.628 68.5198 37.6055C79.121 38.6355 90.4265 42.0508 102.738 47.8282C109.843 47.3132 131.83 45.8774 146.716 46.7706V46.7667C142.081 35.1878 136.167 22.8241 132.996 16.753Z"/>
</mask>
<path d="M114.123 6.7188C125.159 3.87037 133.89 1.62129 139.908 13.1436C143.244 19.5164 149.126 31.7712 153.845 43.5391C170.682 33.8594 185.54 32.6692 193.92 40.4219C200.916 46.8752 201.701 57.8822 195.928 69.1631C189.962 80.8225 181.991 84.8624 170.606 85.2969L170.416 77.5967C179.364 77.2185 184.679 74.044 188.964 65.6114C193.084 57.5851 192.951 50.1297 188.638 46.1426C184.055 41.9142 173.293 41.0453 156.669 50.9424C158.323 55.5249 159.678 59.8099 160.41 63.3624L161.224 67.1563L157.402 67.9688C156.858 68.1056 149.134 69.6507 135.902 67.4542C126.874 65.9374 115.351 62.6825 101.821 56.0684C85.2529 47.9334 72.0242 45.1124 61.3948 45.1124C49.3855 45.1124 40.7076 48.7179 34.2825 52.2422C22.76 58.615 14.9507 66.6932 12.8626 74.3936C11.6154 78.9761 12.2911 83.3698 14.9505 87.8155C17.6621 92.3697 21.1346 94.973 25.2825 95.5684C26.2599 95.7051 27.2614 95.7291 28.263 95.6768V95.6836C33.5753 95.3031 39.0751 92.2953 42.5696 89.042C46.9348 84.9745 54.688 79.2253 66.8382 75.1055C81.9132 69.9558 99.6442 68.681 119.547 71.2559C125.107 71.9881 130.285 72.7482 135.029 73.4522C137.253 73.8062 139.394 74.1283 141.453 74.4542C147.065 75.3231 152.026 76.1065 156.391 76.6778L156.396 76.6465C161.899 77.3506 166.51 77.7334 170.412 77.5684L170.602 85.2686C168.244 85.3772 165.749 85.321 163.066 85.1319C162.82 87.409 162.906 92.8844 163.175 97.8731C167.46 98.9594 171.58 100.803 174.263 104.029C176.512 106.769 177.433 110.213 176.947 114.007C176.242 119.756 172.959 124.339 167.782 126.966C165.883 127.887 163.822 128.567 161.625 128.945C160.024 141.526 153.084 153.128 142.511 160.805C139.123 163.271 135.434 165.279 131.556 166.796L123.719 169.161C120.006 169.974 116.127 170.408 112.197 170.408C108.483 170.408 104.685 170.03 100.863 169.298C90.6749 167.32 83.384 162.931 78.263 157.569L78.2522 157.578C73.1266 152.183 69.7592 145.335 68.5442 139.848C67.3358 134.389 67.0308 131.268 67.0276 131.234C66.919 129.935 66.8665 128.688 66.8665 127.545C63.3703 126.595 58.1639 124.346 54.1487 119.084C49.4577 112.957 47.6675 104.496 48.8059 93.9512C48.4802 94.2207 48.1826 94.4943 47.885 94.7637C43.5721 98.8031 36.2815 103.06 28.5247 103.466L28.5237 103.458C28.0923 103.509 27.661 103.51 27.2337 103.51C26.2319 103.51 25.2012 103.458 24.1673 103.293C17.6618 102.372 12.1304 98.3838 8.22389 91.7979C4.48246 85.5098 3.50407 78.9724 5.29421 72.3585C8.92717 59.0175 22.6466 49.7474 30.5081 45.4063C40.0512 40.1479 50.0295 37.4083 60.7112 37.2715C60.683 36.4871 60.6583 35.6985 60.6301 34.9141C60.2761 23.4198 59.8176 9.10056 72.9934 6.11919C79.2574 4.73526 83.9206 6.1472 88.4465 7.50298C93.4072 8.99559 98.0987 10.4322 105.936 8.6983C108.917 8.04653 111.685 7.3424 114.123 6.7188ZM111.794 78.3047C106.182 77.8179 100.947 77.7092 96.1477 77.8702C100.324 86.1941 100.484 92.4301 94.385 97.1211C90.6432 99.9937 80.0705 102.894 76.679 95.3028C71.9879 84.7538 56.0438 90.6401 56.426 103.221C56.8324 107.694 58.1082 111.379 60.2766 114.228C64.561 119.92 70.9328 120.436 71.2034 120.436L75.2708 120.733L74.8362 124.801C74.808 125.018 73.3456 141.706 84.6135 152.822L84.6253 152.815C88.6646 156.802 94.3575 160.081 102.356 161.626C115.451 164.173 128.084 161.625 137.929 154.496C146.414 148.312 152.083 139.152 153.68 129.147C148.583 128.632 143.216 126.897 138.09 124.021C136.191 122.962 135.543 120.577 136.597 118.678C137.655 116.807 140.041 116.155 141.94 117.213C149.886 121.715 158.669 122.798 164.253 119.978C167.126 118.541 168.808 116.183 169.19 113.009C169.487 110.84 168.783 109.701 168.212 109.022C164.868 104.95 154.533 104.259 150.044 103.958L149.966 103.952L149.907 103.949C149.36 103.922 148.864 103.898 148.421 103.844C146.281 103.683 144.652 101.812 144.817 99.668C144.978 97.4995 146.848 95.8986 149.021 96.0635C149.455 96.0917 149.942 96.1156 150.486 96.1719C151.87 96.2524 153.495 96.3608 155.285 96.5499C155.125 92.7904 154.96 87.6304 155.282 84.3741C150.701 83.8028 145.712 83.0194 140.262 82.1788C135.68 81.4747 130.638 80.6861 125.215 79.9297C121.908 80.5535 116.646 84.2423 113.99 86.4913C113.258 87.1149 112.337 87.4415 111.444 87.4415C110.358 87.4414 109.247 86.9788 108.487 86.0577C107.079 84.4324 107.268 81.9619 108.921 80.5538C109.219 80.3083 110.277 79.4152 111.794 78.3047ZM117.27 121.55C118.247 119.627 120.605 118.867 122.528 119.868C124.451 120.846 125.211 123.204 124.209 125.127C123.614 126.322 123.043 127.267 122.476 128.084C123.236 129.52 124.725 131.665 127.327 132.747C130.256 133.966 133.998 133.64 138.472 131.717C140.451 130.876 142.757 131.797 143.598 133.776V133.773C144.439 135.752 143.517 138.058 141.537 138.898C137.824 140.5 134.352 141.284 131.125 141.284C128.683 141.284 126.406 140.849 124.294 139.956C119.981 138.138 117.382 134.915 115.942 132.421C115.455 132.558 114.992 132.69 114.449 132.936C113.963 133.153 113.419 133.262 112.905 133.262C111.388 133.262 109.947 132.369 109.324 130.904C108.454 128.925 109.352 126.62 111.331 125.755C112.498 125.268 113.447 124.994 114.203 124.776C115.612 124.37 115.858 124.29 117.27 121.55ZM121.333 95.4073C123.365 91.151 126.917 88.6 129.279 89.7139C131.636 90.8525 131.91 95.2182 129.874 99.503C127.843 103.759 124.262 106.31 121.905 105.195C119.547 104.057 119.302 99.692 121.333 95.4073ZM132.996 16.753C130.067 11.1929 127.762 11.2768 116.078 14.2862C113.584 14.9379 110.736 15.6709 107.594 16.3467C97.7774 18.4871 91.352 16.5352 86.1741 14.9903C82.1348 13.7712 78.96 12.7939 74.7034 13.7715C68.3067 15.208 68.0615 22.6394 68.4397 34.6768C68.4679 35.6543 68.5198 36.628 68.5198 37.6055C79.121 38.6355 90.4265 42.0508 102.738 47.8282C109.843 47.3132 131.83 45.8774 146.716 46.7706V46.7667C142.081 35.1878 136.167 22.8241 132.996 16.753Z" fill="var(--fill-0, black)"/>
<path d="M114.123 6.7188L115.22 11.0064L115.229 11.0039L114.123 6.7188ZM139.908 13.1436L135.986 15.1926L135.987 15.1957L139.908 13.1436ZM153.845 43.5391L149.737 45.1864C150.214 46.376 151.184 47.3004 152.395 47.7204C153.606 48.1404 154.94 48.0147 156.051 47.3758L153.845 43.5391ZM193.92 40.4219L190.915 43.6706L190.92 43.675L193.92 40.4219ZM195.928 69.1631L191.988 67.147L191.988 67.1471L195.928 69.1631ZM170.606 85.2969L166.182 85.4058C166.211 86.5895 166.713 87.7123 167.576 88.5229C168.439 89.3335 169.591 89.7644 170.775 89.7193L170.606 85.2969ZM170.416 77.5967L170.229 73.1751C167.818 73.277 165.933 75.2926 165.992 77.7056L170.416 77.5967ZM188.964 65.6114L185.027 63.5905C185.024 63.5959 185.021 63.6012 185.019 63.6066L188.964 65.6114ZM188.638 46.1426L191.642 42.893L191.639 42.8902L188.638 46.1426ZM156.669 50.9424L154.405 47.1398C152.583 48.2247 151.787 50.4497 152.506 52.4446L156.669 50.9424ZM160.41 63.3624L156.076 64.2558C156.078 64.2672 156.081 64.2787 156.083 64.2902L160.41 63.3624ZM161.224 67.1563L162.144 71.4851C163.293 71.2408 164.299 70.5494 164.938 69.5633C165.577 68.5772 165.797 67.3775 165.551 66.2285L161.224 67.1563ZM157.402 67.9688L156.481 63.64C156.428 63.6514 156.374 63.6638 156.321 63.6773L157.402 67.9688ZM135.902 67.4542L135.168 71.8186L135.177 71.82L135.902 67.4542ZM101.821 56.0684L99.87 60.0409L99.877 60.0443L101.821 56.0684ZM61.3948 45.1124L61.3948 40.6868H61.3948V45.1124ZM34.2825 52.2422L32.1541 48.3621C32.1496 48.3646 32.1451 48.367 32.1406 48.3695L34.2825 52.2422ZM12.8626 74.3936L17.1328 75.5558L17.1339 75.5519L12.8626 74.3936ZM14.9505 87.8155L18.753 85.5514L18.7484 85.5436L14.9505 87.8155ZM25.2825 95.5684L24.6536 99.9491C24.6589 99.9498 24.6641 99.9506 24.6694 99.9513L25.2825 95.5684ZM28.263 95.6768H32.6885C32.6885 94.463 32.19 93.3025 31.3097 92.467C30.4293 91.6314 29.2444 91.194 28.0323 91.2573L28.263 95.6768ZM28.263 95.6836H23.8374C23.8374 96.9123 24.3482 98.0857 25.2475 98.9229C26.1468 99.76 27.3536 100.186 28.5792 100.098L28.263 95.6836ZM42.5696 89.042L45.5851 92.2812L45.5866 92.2799L42.5696 89.042ZM66.8382 75.1055L68.2593 79.2967L68.2688 79.2935L66.8382 75.1055ZM119.547 71.2559L120.125 66.8682L120.115 66.8669L119.547 71.2559ZM135.029 73.4522L135.724 69.0816C135.709 69.0792 135.694 69.0769 135.678 69.0746L135.029 73.4522ZM141.453 74.4542L140.762 78.8254C140.767 78.8261 140.771 78.8269 140.776 78.8276L141.453 74.4542ZM156.391 76.6778L155.817 81.0659C158.198 81.3776 160.393 79.7335 160.763 77.361L156.391 76.6778ZM156.396 76.6465L156.957 72.2567C154.58 71.9527 152.393 73.5957 152.023 75.9633L156.396 76.6465ZM170.412 77.5684L174.837 77.4596C174.807 76.2727 174.303 75.1473 173.435 74.3363C172.568 73.5252 171.412 73.0967 170.225 73.1468L170.412 77.5684ZM170.602 85.2686L170.806 89.6895C173.21 89.5787 175.085 87.5662 175.026 85.1598L170.602 85.2686ZM163.066 85.1319L163.377 80.7173C161.002 80.5499 158.921 82.2909 158.666 84.6577L163.066 85.1319ZM163.175 97.8731L158.756 98.1119C158.86 100.046 160.21 101.687 162.087 102.163L163.175 97.8731ZM174.263 104.029L177.684 101.222C177.678 101.214 177.672 101.207 177.666 101.2L174.263 104.029ZM176.947 114.007L172.557 113.444C172.556 113.452 172.555 113.46 172.554 113.469L176.947 114.007ZM167.782 126.966L169.713 130.948C169.737 130.936 169.761 130.924 169.784 130.912L167.782 126.966ZM161.625 128.945L160.874 124.584C158.957 124.914 157.481 126.457 157.235 128.387L161.625 128.945ZM142.511 160.805L139.911 157.224L139.906 157.227L142.511 160.805ZM131.556 166.796L132.835 171.033C132.947 170.999 133.058 170.96 133.168 170.918L131.556 166.796ZM123.719 169.161L124.665 173.484C124.777 173.46 124.888 173.431 124.998 173.398L123.719 169.161ZM112.197 170.408L112.197 174.834L112.197 174.834L112.197 170.408ZM100.863 169.298L100.019 173.642L100.03 173.644L100.863 169.298ZM78.263 157.569L81.4634 154.513C79.8661 152.84 77.2504 152.68 75.4605 154.144L78.263 157.569ZM78.2522 157.578L75.0437 160.626C76.6397 162.306 79.2613 162.471 81.0546 161.003L78.2522 157.578ZM68.5442 139.848L64.2233 140.804L64.2233 140.804L68.5442 139.848ZM67.0276 131.234L62.6174 131.603C62.6191 131.623 62.6209 131.643 62.6228 131.662L67.0276 131.234ZM66.8665 127.545L71.292 127.545C71.292 125.547 69.954 123.798 68.0263 123.274L66.8665 127.545ZM54.1487 119.084L57.6671 116.4L57.6627 116.394L54.1487 119.084ZM48.8059 93.9512L53.2059 94.4263C53.3992 92.636 52.4885 90.9071 50.9028 90.054C49.3171 89.2008 47.3726 89.3934 45.9851 90.5412L48.8059 93.9512ZM47.885 94.7637L44.9147 91.4831C44.8963 91.4998 44.878 91.5166 44.8598 91.5336L47.885 94.7637ZM28.5247 103.466L24.1333 104.015C24.4211 106.317 26.4388 108.007 28.7562 107.885L28.5247 103.466ZM28.5237 103.458L32.9151 102.909C32.6133 100.494 30.4186 98.7765 28.0021 99.0633L28.5237 103.458ZM27.2337 103.51L27.2337 107.935L27.2337 103.51ZM24.1673 103.293L24.8645 98.9227C24.839 98.9187 24.8135 98.9148 24.7879 98.9112L24.1673 103.293ZM8.22389 91.7979L12.0302 89.5401L12.0271 89.535L8.22389 91.7979ZM5.29421 72.3585L1.02413 71.1956L1.02235 71.2022L5.29421 72.3585ZM30.5081 45.4063L28.3723 41.5302L28.3688 41.5322L30.5081 45.4063ZM60.7112 37.2715L60.7679 41.6967C61.9592 41.6815 63.0941 41.1865 63.9158 40.3238C64.7375 39.4611 65.1767 38.3034 65.1339 37.1128L60.7112 37.2715ZM60.6301 34.9141L56.2067 35.0504C56.2069 35.0579 56.2072 35.0654 56.2074 35.0729L60.6301 34.9141ZM72.9934 6.11919L72.0387 1.79784C72.0314 1.79946 72.024 1.8011 72.0167 1.80275L72.9934 6.11919ZM88.4465 7.50298L89.7217 3.2651L89.7165 3.26354L88.4465 7.50298ZM105.936 8.6983L104.991 4.37483L104.98 4.37722L105.936 8.6983ZM111.794 78.3047L114.408 81.8756C115.896 80.7864 116.553 78.8886 116.056 77.1127C115.56 75.3369 114.014 74.0551 112.177 73.8957L111.794 78.3047ZM96.1477 77.8702L95.9994 73.4471C94.4918 73.4976 93.1137 74.3126 92.3431 75.6095C91.5726 76.9063 91.5156 78.5063 92.192 79.8547L96.1477 77.8702ZM94.385 97.1211L97.0799 100.632L97.0831 100.629L94.385 97.1211ZM76.679 95.3028L72.6352 97.101L72.6383 97.108L76.679 95.3028ZM56.426 103.221L52.0025 103.355C52.0052 103.444 52.0106 103.533 52.0186 103.621L56.426 103.221ZM60.2766 114.228L63.8126 111.566C63.8077 111.56 63.8028 111.553 63.7979 111.547L60.2766 114.228ZM71.2034 120.436L71.5266 116.022C71.4195 116.014 71.3122 116.01 71.2048 116.01L71.2034 120.436ZM75.2708 120.733L79.6713 121.204C79.7987 120.011 79.4367 118.818 78.6681 117.897C77.8995 116.977 76.7901 116.407 75.594 116.32L75.2708 120.733ZM74.8362 124.801L79.225 125.37C79.2293 125.337 79.2332 125.304 79.2367 125.271L74.8362 124.801ZM84.6135 152.822L81.5055 155.973C82.9992 157.446 85.3225 157.669 87.0684 156.505L84.6135 152.822ZM84.6253 152.815L87.7342 149.665C86.2405 148.19 83.9167 147.968 82.1704 149.132L84.6253 152.815ZM102.356 161.626L103.201 157.282L103.195 157.281L102.356 161.626ZM137.929 154.496L140.525 158.081L140.536 158.073L137.929 154.496ZM153.68 129.147L158.05 129.844C158.242 128.641 157.93 127.413 157.187 126.447C156.444 125.482 155.337 124.866 154.125 124.743L153.68 129.147ZM138.09 124.021L140.256 120.161L140.244 120.155L138.09 124.021ZM136.597 118.678L132.745 116.499C132.739 116.509 132.733 116.52 132.727 116.53L136.597 118.678ZM141.94 117.213L144.121 113.362C144.112 113.357 144.103 113.352 144.093 113.347L141.94 117.213ZM164.253 119.978L162.274 116.019C162.269 116.022 162.263 116.025 162.258 116.027L164.253 119.978ZM169.19 113.009L164.805 112.407C164.802 112.431 164.799 112.455 164.796 112.48L169.19 113.009ZM168.212 109.022L164.792 111.83C164.803 111.843 164.813 111.856 164.824 111.868L168.212 109.022ZM150.044 103.958L149.713 108.371C149.725 108.372 149.737 108.373 149.749 108.374L150.044 103.958ZM149.966 103.952L150.297 99.539C150.26 99.5363 150.224 99.534 150.187 99.5322L149.966 103.952ZM149.907 103.949L150.128 99.5292L150.125 99.5291L149.907 103.949ZM148.421 103.844L148.961 99.4512C148.892 99.4428 148.823 99.4359 148.753 99.4307L148.421 103.844ZM144.817 99.668L149.229 100.007L149.23 99.9956L144.817 99.668ZM149.021 96.0635L148.686 100.476C148.702 100.478 148.718 100.479 148.735 100.48L149.021 96.0635ZM150.486 96.1719L150.029 100.574C150.096 100.581 150.162 100.586 150.229 100.59L150.486 96.1719ZM155.285 96.5499L154.821 100.951C156.101 101.086 157.377 100.657 158.315 99.7756C159.254 98.894 159.762 97.6475 159.707 96.3611L155.285 96.5499ZM155.282 84.3741L159.687 84.81C159.923 82.4213 158.212 80.2795 155.83 79.9825L155.282 84.3741ZM140.262 82.1788L140.937 77.8049L140.934 77.8045L140.262 82.1788ZM125.215 79.9297L125.826 75.5466C125.351 75.4802 124.867 75.4918 124.395 75.5809L125.215 79.9297ZM113.99 86.4913L111.13 83.1142L111.121 83.122L113.99 86.4913ZM111.444 87.4415L111.443 91.867H111.444V87.4415ZM108.487 86.0577L111.9 83.2405C111.877 83.2133 111.855 83.1865 111.831 83.1599L108.487 86.0577ZM108.921 80.5538L106.106 77.1389C106.088 77.154 106.07 77.1692 106.052 77.1847L108.921 80.5538ZM117.27 121.55L121.204 123.577C121.207 123.57 121.211 123.563 121.215 123.556L117.27 121.55ZM122.528 119.868L120.483 123.793C120.496 123.8 120.509 123.807 120.522 123.813L122.528 119.868ZM124.209 125.127L120.284 123.082C120.272 123.106 120.26 123.129 120.248 123.153L124.209 125.127ZM122.476 128.084L118.841 125.559C117.897 126.919 117.79 128.692 118.565 130.155L122.476 128.084ZM127.327 132.747L129.028 128.661L129.026 128.661L127.327 132.747ZM138.472 131.717L136.742 127.644C136.736 127.646 136.73 127.649 136.724 127.651L138.472 131.717ZM143.598 133.776L139.525 135.507C140.347 137.443 142.42 138.533 144.481 138.113C146.542 137.693 148.023 135.88 148.023 133.776H143.598ZM143.598 133.773L147.671 132.042C146.849 130.106 144.777 129.016 142.715 129.436C140.653 129.856 139.172 131.669 139.172 133.773H143.598ZM141.537 138.898L139.807 134.825C139.8 134.828 139.792 134.831 139.785 134.835L141.537 138.898ZM131.125 141.284L131.125 145.71H131.125V141.284ZM124.294 139.956L126.018 135.88L126.014 135.878L124.294 139.956ZM115.942 132.421L119.774 130.208C118.763 128.456 116.692 127.613 114.744 128.16L115.942 132.421ZM114.449 132.936L116.253 136.977C116.259 136.974 116.265 136.971 116.272 136.969L114.449 132.936ZM112.905 133.262L112.905 137.687L112.905 137.687L112.905 133.262ZM109.324 130.904L113.395 129.17C113.389 129.155 113.382 129.14 113.376 129.125L109.324 130.904ZM111.331 125.755L109.627 121.671C109.604 121.68 109.582 121.69 109.559 121.7L111.331 125.755ZM114.203 124.776L115.425 129.03L115.43 129.028L114.203 124.776ZM121.333 95.4073L117.339 93.5009L117.334 93.5111L121.333 95.4073ZM129.279 89.7139L131.203 85.7287C131.191 85.7229 131.179 85.717 131.167 85.7113L129.279 89.7139ZM129.874 99.503L133.868 101.409L133.872 101.402L129.874 99.503ZM121.905 105.195L119.98 109.181C119.991 109.186 120.002 109.191 120.013 109.196L121.905 105.195ZM132.996 16.753L136.919 14.7044C136.917 14.6998 136.914 14.6951 136.912 14.6904L132.996 16.753ZM116.078 14.2862L114.974 10.0005C114.97 10.0018 114.965 10.0031 114.96 10.0044L116.078 14.2862ZM107.594 16.3467L106.663 12.0201L106.651 12.0228L107.594 16.3467ZM86.1741 14.9903L84.8954 19.2271L84.9088 19.2311L86.1741 14.9903ZM74.7034 13.7715L75.673 18.0896C75.68 18.088 75.687 18.0864 75.694 18.0848L74.7034 13.7715ZM68.4397 34.6768L72.8635 34.5493L72.8631 34.5378L68.4397 34.6768ZM68.5198 37.6055H64.0942C64.0942 39.8839 65.8241 41.79 68.0918 42.0103L68.5198 37.6055ZM102.738 47.8282L100.857 51.8345C101.544 52.1566 102.301 52.297 103.057 52.2422L102.738 47.8282ZM146.716 46.7706L146.451 51.1882C147.669 51.2612 148.862 50.8285 149.75 49.9923C150.638 49.156 151.142 47.9903 151.142 46.7706H146.716ZM146.716 46.7667H151.142C151.142 46.2033 151.034 45.6451 150.825 45.1221L146.716 46.7667ZM114.123 6.7188L115.229 11.0039C121.012 9.51144 125.055 8.53523 128.366 8.9357C129.857 9.11612 131.108 9.57986 132.253 10.4307C133.43 11.305 134.709 12.7483 135.986 15.1926L139.908 13.1436L143.831 11.0946C142.099 7.77774 140.029 5.18134 137.531 3.32569C135.002 1.44659 132.252 0.490187 129.429 0.148641C124.11 -0.494822 118.271 1.07773 113.017 2.43368L114.123 6.7188ZM139.908 13.1436L135.987 15.1957C139.263 21.4541 145.08 33.5736 149.737 45.1864L153.845 43.5391L157.953 41.8919C153.171 29.9689 147.225 17.5786 143.829 11.0915L139.908 13.1436ZM153.845 43.5391L156.051 47.3758C164.093 42.7522 171.379 40.3274 177.4 39.8554C183.376 39.3868 187.854 40.8389 190.915 43.6706L193.92 40.4219L196.926 37.1733C191.606 32.2522 184.465 30.4231 176.708 31.0313C168.995 31.6361 160.434 34.6463 151.639 39.7024L153.845 43.5391ZM193.92 40.4219L190.92 43.675C195.919 48.2862 197.24 56.8859 191.988 67.147L195.928 69.1631L199.868 71.1793C206.163 58.8785 205.914 45.4641 196.921 37.1689L193.92 40.4219ZM195.928 69.1631L191.988 67.1471C189.282 72.4357 186.303 75.6566 183.006 77.6544C179.688 79.6648 175.655 80.6754 170.437 80.8746L170.606 85.2969L170.775 89.7193C176.942 89.4839 182.587 88.2573 187.593 85.2242C192.619 82.1786 196.608 77.5499 199.868 71.1792L195.928 69.1631ZM170.606 85.2969L175.03 85.1881L174.841 77.4879L170.416 77.5967L165.992 77.7056L166.182 85.4058L170.606 85.2969ZM170.416 77.5967L170.603 82.0184C175.553 81.8091 179.959 80.8077 183.812 78.36C187.669 75.9098 190.536 72.2875 192.91 67.6161L188.964 65.6114L185.019 63.6066C183.108 67.3679 181.175 69.5493 179.066 70.889C176.953 72.2312 174.227 73.0061 170.229 73.1751L170.416 77.5967ZM188.964 65.6114L192.901 67.6323C197.34 58.9852 198.181 48.9378 191.642 42.893L188.638 46.1426L185.634 49.3923C187.721 51.3215 188.828 56.1849 185.027 63.5905L188.964 65.6114ZM188.638 46.1426L191.639 42.8902C188.159 39.6788 182.936 38.2706 176.764 38.8385C170.572 39.408 163.09 41.9695 154.405 47.1398L156.669 50.9424L158.933 54.7451C166.873 50.0182 173.083 48.0656 177.575 47.6524C182.085 47.2375 184.535 48.378 185.637 49.3951L188.638 46.1426ZM156.669 50.9424L152.506 52.4446C154.137 56.9649 155.408 61.0152 156.076 64.2558L160.41 63.3624L164.745 62.469C163.948 58.6045 162.508 54.0848 160.832 49.4403L156.669 50.9424ZM160.41 63.3624L156.083 64.2902L156.897 68.0841L161.224 67.1563L165.551 66.2285L164.738 62.4345L160.41 63.3624ZM161.224 67.1563L160.304 62.8275L156.481 63.64L157.402 67.9688L158.322 72.2976L162.144 71.4851L161.224 67.1563ZM157.402 67.9688L156.321 63.6773C156.402 63.6568 149.293 65.1911 136.626 63.0883L135.902 67.4542L135.177 71.82C148.974 74.1104 157.315 72.5543 158.482 72.2604L157.402 67.9688ZM135.902 67.4542L136.635 63.0898C128.027 61.6437 116.912 58.5197 103.764 52.0925L101.821 56.0684L99.877 60.0443C113.789 66.8453 125.72 70.2312 135.168 71.8186L135.902 67.4542ZM101.821 56.0684L103.771 52.0959C86.7284 43.7277 72.8336 40.6868 61.3948 40.6868L61.3948 45.1124L61.3948 49.5379C71.2148 49.5379 83.7773 52.1392 99.87 60.0409L101.821 56.0684ZM61.3948 45.1124V40.6868C48.414 40.6868 38.9979 44.6081 32.1541 48.3621L34.2825 52.2422L36.4109 56.1224C42.4173 52.8277 50.3569 49.5379 61.3948 49.5379V45.1124ZM34.2825 52.2422L32.1406 48.3695C20.2197 54.9627 11.1447 63.8191 8.59126 73.2353L12.8626 74.3936L17.1339 75.5519C18.7567 69.5672 25.3004 62.2673 36.4244 56.115L34.2825 52.2422ZM12.8626 74.3936L8.59233 73.2314C7.00065 79.0796 7.93316 84.7055 11.1525 90.0874L14.9505 87.8155L18.7484 85.5436C16.649 82.0341 16.2301 78.8726 17.1328 75.5558L12.8626 74.3936ZM14.9505 87.8155L11.1479 90.0796C14.3472 95.4529 18.8444 99.1152 24.6536 99.9491L25.2825 95.5684L25.9113 91.1878C23.4247 90.8308 20.977 89.2865 18.753 85.5514L14.9505 87.8155ZM25.2825 95.5684L24.6694 99.9513C25.9829 100.135 27.2739 100.16 28.4936 100.096L28.263 95.6768L28.0323 91.2573C27.249 91.2981 26.5369 91.2752 25.8956 91.1855L25.2825 95.5684ZM28.263 95.6768H23.8374V95.6836H28.263H32.6885V95.6768H28.263ZM28.263 95.6836L28.5792 100.098C35.1496 99.6273 41.5589 96.0294 45.5851 92.2812L42.5696 89.042L39.5541 85.8029C36.5912 88.5611 32.0009 90.979 27.9468 91.2694L28.263 95.6836ZM42.5696 89.042L45.5866 92.2799C49.5511 88.5858 56.773 83.1914 68.2593 79.2967L66.8382 75.1055L65.417 70.9143C52.603 75.2592 44.3186 81.3633 39.5526 85.8042L42.5696 89.042ZM66.8382 75.1055L68.2688 79.2935C82.5529 74.4139 99.5732 73.1343 118.979 75.6449L119.547 71.2559L120.115 66.8669C99.7151 64.2278 81.2736 65.4976 65.4075 70.9176L66.8382 75.1055ZM119.547 71.2559L118.969 75.6436C124.491 76.3708 129.639 77.1263 134.379 77.8298L135.029 73.4522L135.678 69.0746C130.932 68.37 125.723 67.6055 120.125 66.8682L119.547 71.2559ZM135.029 73.4522L134.333 77.8228C136.48 78.1644 138.826 78.5191 140.762 78.8254L141.453 74.4542L142.145 70.083C139.961 69.7374 138.027 69.448 135.724 69.0816L135.029 73.4522ZM141.453 74.4542L140.776 78.8276C146.359 79.692 151.386 80.4861 155.817 81.0659L156.391 76.6778L156.965 72.2896C152.666 71.7269 147.772 70.9542 142.131 70.0807L141.453 74.4542ZM156.391 76.6778L160.763 77.361L160.768 77.3297L156.396 76.6465L152.023 75.9633L152.018 75.9946L156.391 76.6778ZM156.396 76.6465L155.834 81.0363C161.399 81.7482 166.311 82.1713 170.599 81.99L170.412 77.5684L170.225 73.1468C166.709 73.2954 162.4 72.953 156.957 72.2567L156.396 76.6465ZM170.412 77.5684L165.988 77.6773L166.178 85.3775L170.602 85.2686L175.026 85.1598L174.837 77.4596L170.412 77.5684ZM170.602 85.2686L170.398 80.8477C168.251 80.9466 165.933 80.8974 163.377 80.7173L163.066 85.1319L162.755 89.5465C165.565 89.7446 168.237 89.8078 170.806 89.6895L170.602 85.2686ZM163.066 85.1319L158.666 84.6577C158.376 87.3406 158.488 93.1573 158.756 98.1119L163.175 97.8731L167.594 97.6343C167.323 92.6115 167.264 87.4774 167.466 85.6061L163.066 85.1319ZM163.175 97.8731L162.087 102.163C165.994 103.153 169.048 104.68 170.86 106.859L174.263 104.029L177.666 101.2C174.111 96.9253 168.926 94.7655 164.263 93.5833L163.175 97.8731ZM174.263 104.029L170.842 106.837C172.248 108.55 172.903 110.746 172.557 113.444L176.947 114.007L181.336 114.57C181.964 109.681 180.776 104.988 177.684 101.222L174.263 104.029ZM176.947 114.007L172.554 113.469C172.033 117.718 169.676 121.042 165.779 123.019L167.782 126.966L169.784 130.912C176.243 127.635 180.451 121.794 181.339 114.545L176.947 114.007ZM167.782 126.966L165.85 122.984C164.314 123.729 162.65 124.278 160.874 124.584L161.625 128.945L162.376 133.307C164.994 132.856 167.451 132.045 169.713 130.948L167.782 126.966ZM161.625 128.945L157.235 128.387C155.792 139.722 149.524 150.244 139.911 157.224L142.511 160.805L145.111 164.386C156.644 156.013 164.256 143.33 166.015 129.504L161.625 128.945ZM142.511 160.805L139.906 157.227C136.83 159.466 133.476 161.293 129.944 162.674L131.556 166.796L133.168 170.918C137.393 169.265 141.417 167.076 145.116 164.383L142.511 160.805ZM131.556 166.796L130.277 162.559L122.44 164.924L123.719 169.161L124.998 173.398L132.835 171.033L131.556 166.796ZM123.719 169.161L122.773 164.838C119.364 165.584 115.803 165.983 112.197 165.983L112.197 170.408L112.197 174.834C116.451 174.834 120.647 174.364 124.665 173.484L123.719 169.161ZM112.197 170.408V165.983C108.782 165.983 105.263 165.635 101.695 164.951L100.863 169.298L100.03 173.644C104.106 174.425 108.184 174.834 112.197 174.834V170.408ZM100.863 169.298L101.706 164.953C92.3844 163.144 85.9276 159.187 81.4634 154.513L78.263 157.569L75.0626 160.626C80.8404 166.676 88.9654 171.496 100.019 173.642L100.863 169.298ZM78.263 157.569L75.4605 154.144L75.4498 154.153L78.2522 157.578L81.0546 161.003L81.0654 160.995L78.263 157.569ZM78.2522 157.578L81.4607 154.53C76.8888 149.718 73.9061 143.593 72.8651 138.891L68.5442 139.848L64.2233 140.804C65.6122 147.078 69.3645 154.648 75.0437 160.626L78.2522 157.578ZM68.5442 139.848L72.8651 138.891C71.6995 133.626 71.4204 130.682 71.4324 130.807L67.0276 131.234L62.6228 131.662C62.6413 131.853 62.972 135.153 64.2233 140.804L68.5442 139.848ZM67.0276 131.234L71.4378 130.866C71.3386 129.68 71.292 128.556 71.292 127.545L66.8665 127.545L62.4409 127.545C62.4409 128.82 62.4993 130.19 62.6174 131.603L67.0276 131.234ZM66.8665 127.545L68.0263 123.274C65.1224 122.485 60.9057 120.644 57.6671 116.4L54.1487 119.084L50.6303 121.769C55.4221 128.049 61.6182 130.706 65.7066 131.816L66.8665 127.545ZM54.1487 119.084L57.6627 116.394C53.8888 111.464 52.1425 104.275 53.2059 94.4263L48.8059 93.9512L44.4059 93.4762C43.1924 104.716 45.0266 114.449 50.6347 121.774L54.1487 119.084ZM48.8059 93.9512L45.9851 90.5412C45.5639 90.8896 45.1766 91.2459 44.9147 91.4831L47.885 94.7637L50.8554 98.0444C51.1886 97.7426 51.3965 97.5518 51.6268 97.3613L48.8059 93.9512ZM47.885 94.7637L44.8598 91.5336C41.0635 95.0891 34.7151 98.7099 28.2932 99.0464L28.5247 103.466L28.7562 107.885C37.8479 107.409 46.0808 102.517 50.9102 97.9938L47.885 94.7637ZM28.5247 103.466L32.9161 102.917L32.9151 102.909L28.5237 103.458L24.1323 104.007L24.1333 104.015L28.5247 103.466ZM28.5237 103.458L28.0021 99.0633C27.8713 99.0789 27.6974 99.0843 27.2337 99.0843L27.2337 103.51L27.2337 107.935C27.6247 107.935 28.3133 107.94 29.0453 107.853L28.5237 103.458ZM27.2337 103.51V99.0843C26.3778 99.0843 25.5951 99.0393 24.8645 98.9227L24.1673 103.293L23.47 107.663C24.8074 107.877 26.0859 107.935 27.2337 107.935V103.51ZM24.1673 103.293L24.7879 98.9112C19.8397 98.2103 15.3788 95.1854 12.0302 89.5401L8.22389 91.7979L4.41756 94.0557C8.88201 101.582 15.484 106.533 23.5466 107.675L24.1673 103.293ZM8.22389 91.7979L12.0271 89.535C8.85452 84.2028 8.11048 78.8926 9.56607 73.5147L5.29421 72.3585L1.02235 71.2022C-1.10235 79.0523 0.110406 86.8168 4.42064 94.0608L8.22389 91.7979ZM5.29421 72.3585L9.56428 73.5213C11.0836 67.9419 14.7952 62.9666 19.33 58.7476C23.8399 54.5517 28.9001 51.3497 32.6474 49.2804L30.5081 45.4063L28.3688 41.5322C24.2546 43.804 18.5244 47.4076 13.301 52.2673C8.1024 57.1039 3.13774 63.434 1.02413 71.1956L5.29421 72.3585ZM30.5081 45.4063L32.6438 49.2824C41.5825 44.3571 50.8504 41.8237 60.7679 41.6967L60.7112 37.2715L60.6545 32.8463C49.2086 32.9929 38.5199 35.9387 28.3723 41.5302L30.5081 45.4063ZM60.7112 37.2715L65.1339 37.1128C65.12 36.7264 65.107 36.3382 65.0937 35.9441C65.0805 35.5517 65.0671 35.1534 65.0529 34.7554L60.6301 34.9141L56.2074 35.0729C56.2213 35.4592 56.2344 35.8475 56.2476 36.2416C56.2608 36.634 56.2742 37.0322 56.2885 37.4303L60.7112 37.2715ZM60.6301 34.9141L65.0536 34.7779C64.8712 28.8559 64.7286 23.1212 66.004 18.5022C66.6179 16.2789 67.5057 14.5522 68.6949 13.2727C69.8457 12.0346 71.4752 11.0002 73.9701 10.4356L72.9934 6.11919L72.0167 1.80275C67.9237 2.7289 64.6696 4.60241 62.2117 7.24685C59.7923 9.8499 58.3463 12.9804 57.4722 16.1464C55.7714 22.3059 56.035 29.478 56.2067 35.0504L60.6301 34.9141ZM72.9934 6.11919L73.9482 10.4405C78.9911 9.32637 82.6673 10.3916 87.1766 11.7424L88.4465 7.50298L89.7165 3.26354C85.1738 1.90275 79.5236 0.144141 72.0387 1.79784L72.9934 6.11919ZM88.4465 7.50298L87.1714 11.7409C92.3117 13.2875 97.9099 15.0066 106.892 13.0194L105.936 8.6983L104.98 4.37722C98.2875 5.85787 94.5026 4.70364 89.7217 3.2651L88.4465 7.50298ZM105.936 8.6983L106.881 13.0217C109.947 12.3515 112.783 11.6297 115.22 11.0063L114.123 6.7188L113.027 2.43126C110.588 3.05511 107.887 3.74153 104.991 4.37485L105.936 8.6983ZM111.794 78.3047L112.177 73.8957C106.385 73.3934 100.973 73.2803 95.9994 73.4471L96.1477 77.8702L96.296 82.2933C100.922 82.1382 105.979 82.2425 111.412 82.7138L111.794 78.3047ZM96.1477 77.8702L92.192 79.8547C94.1433 83.744 94.8307 86.5446 94.7027 88.5803C94.5927 90.3298 93.8607 91.9412 91.6869 93.6132L94.385 97.1211L97.0831 100.629C101.008 97.61 103.246 93.7579 103.536 89.1357C103.809 84.7997 102.328 80.3203 100.103 75.8857L96.1477 77.8702ZM94.385 97.1211L91.6901 93.6107C90.5731 94.4683 87.8845 95.6121 85.2314 95.7137C82.7464 95.8088 81.4117 95.0467 80.7196 93.4976L76.679 95.3028L72.6383 97.108C75.3378 103.15 80.9852 104.734 85.5699 104.558C89.9865 104.389 94.4552 102.647 97.0799 100.632L94.385 97.1211ZM76.679 95.3028L80.7227 93.5045C79.0741 89.7972 76.283 87.2857 72.9142 86.1332C69.6347 85.0112 66.1394 85.2837 63.0731 86.4531C56.9539 88.7867 51.7489 95.0082 52.0025 103.355L56.426 103.221L60.8496 103.086C60.7209 98.8526 63.2969 95.8407 66.227 94.7232C67.6852 94.1671 69.0316 94.1597 70.0491 94.5078C70.9772 94.8253 71.9383 95.5339 72.6352 97.101L76.679 95.3028ZM56.426 103.221L52.0186 103.621C52.4797 108.697 53.9612 113.238 56.7554 116.908L60.2766 114.228L63.7979 111.547C62.2552 109.52 61.1852 106.692 60.8335 102.82L56.426 103.221ZM60.2766 114.228L56.7407 116.889C59.4966 120.551 62.9184 122.533 65.6419 123.591C68.2721 124.613 70.4745 124.861 71.202 124.861L71.2034 120.436L71.2048 116.01C71.6617 116.01 70.543 116 68.8485 115.341C67.2474 114.719 65.3411 113.597 63.8126 111.566L60.2766 114.228ZM71.2034 120.436L70.8802 124.849L74.9476 125.147L75.2708 120.733L75.594 116.32L71.5266 116.022L71.2034 120.436ZM75.2708 120.733L70.8702 120.263L70.4357 124.331L74.8362 124.801L79.2367 125.271L79.6713 121.204L75.2708 120.733ZM74.8362 124.801L70.4474 124.232C70.3799 124.752 70.0058 129.446 71.1379 135.534C72.2748 141.647 75.0064 149.561 81.5055 155.973L84.6135 152.822L87.7216 149.672C82.9527 144.967 80.7816 138.979 79.8398 133.915C78.8932 128.825 79.2643 125.067 79.225 125.37L74.8362 124.801ZM84.6135 152.822L87.0684 156.505L87.0801 156.497L84.6253 152.815L82.1704 149.132L82.1587 149.14L84.6135 152.822ZM84.6253 152.815L81.5164 155.964C86.2136 160.601 92.7113 164.27 101.516 165.971L102.356 161.626L103.195 157.281C96.0037 155.892 91.1156 153.002 87.7342 149.665L84.6253 152.815ZM102.356 161.626L101.511 165.97C115.685 168.727 129.59 165.999 140.525 158.081L137.929 154.496L135.333 150.912C126.579 157.251 115.218 159.619 103.201 157.282L102.356 161.626ZM137.929 154.496L140.536 158.073C149.935 151.222 156.263 141.041 158.05 129.844L153.68 129.147L149.31 128.449C147.903 137.263 142.892 145.403 135.322 150.92L137.929 154.496ZM153.68 129.147L154.125 124.743C149.693 124.296 144.907 122.771 140.256 120.161L138.09 124.021L135.924 127.88C141.524 131.023 147.472 132.968 153.235 133.55L153.68 129.147ZM138.09 124.021L140.244 120.155C140.533 120.315 140.566 120.645 140.466 120.825L136.597 118.678L132.727 116.53C130.52 120.508 131.849 125.609 135.936 127.886L138.09 124.021ZM136.597 118.678L140.449 120.857C140.283 121.151 139.965 121.179 139.786 121.079L141.94 117.213L144.093 113.347C140.117 111.132 135.027 112.463 132.745 116.499L136.597 118.678ZM141.94 117.213L139.758 121.063C148.362 125.938 158.806 127.687 166.248 123.928L164.253 119.978L162.258 116.027C158.532 117.909 151.41 117.492 144.121 113.362L141.94 117.213ZM164.253 119.978L166.232 123.936C170.413 121.846 173.021 118.213 173.584 113.538L169.19 113.009L164.796 112.48C164.594 114.154 163.839 115.237 162.274 116.019L164.253 119.978ZM169.19 113.009L173.574 113.611C173.804 111.936 173.674 110.425 173.232 109.078C172.79 107.731 172.114 106.786 171.6 106.175L168.212 109.022L164.824 111.868C164.862 111.913 164.863 111.92 164.852 111.902C164.84 111.882 164.828 111.857 164.822 111.836C164.815 111.816 164.825 111.836 164.831 111.912C164.837 111.991 164.84 112.151 164.805 112.407L169.19 113.009ZM168.212 109.022L171.632 106.213C170.162 104.422 168.164 103.264 166.326 102.482C164.444 101.681 162.382 101.131 160.433 100.738C156.544 99.9523 152.561 99.6911 150.34 99.5424L150.044 103.958L149.749 108.374C152.016 108.526 155.445 108.76 158.682 109.414C160.296 109.739 161.726 110.144 162.862 110.627C164.043 111.13 164.591 111.585 164.792 111.83L168.212 109.022ZM150.044 103.958L150.375 99.5449L150.297 99.539L149.966 103.952L149.635 108.365L149.713 108.371L150.044 103.958ZM149.966 103.952L150.187 99.5322L150.128 99.5292L149.907 103.949L149.686 108.369L149.745 108.372L149.966 103.952ZM149.907 103.949L150.125 99.5291C149.531 99.4998 149.21 99.4819 148.961 99.4512L148.421 103.844L147.882 108.236C148.518 108.314 149.188 108.345 149.69 108.369L149.907 103.949ZM148.421 103.844L148.753 99.4307C149.02 99.4508 149.254 99.6784 149.229 100.007L144.817 99.668L140.404 99.3288C140.049 103.946 143.542 107.915 148.089 108.257L148.421 103.844ZM144.817 99.668L149.23 99.9956C149.221 100.121 149.152 100.259 149.044 100.351C148.936 100.443 148.798 100.485 148.686 100.476L149.021 96.0635L149.356 91.6507C144.76 91.3018 140.747 94.715 140.403 99.3405L144.817 99.668ZM149.021 96.0635L148.735 100.48C149.249 100.513 149.598 100.529 150.029 100.574L150.486 96.1719L150.942 91.77C150.287 91.702 149.661 91.6702 149.307 91.6472L149.021 96.0635ZM150.486 96.1719L150.229 100.59C151.584 100.669 153.131 100.772 154.821 100.951L155.285 96.5499L155.75 92.1488C153.86 91.9491 152.155 91.836 150.742 91.7538L150.486 96.1719ZM155.285 96.5499L159.707 96.3611C159.543 92.5282 159.401 87.6961 159.687 84.81L155.282 84.3741L150.878 83.9382C150.519 87.5648 150.707 93.0526 150.864 96.7386L155.285 96.5499ZM155.282 84.3741L155.83 79.9825C151.328 79.4211 146.416 78.65 140.937 77.8049L140.262 82.1788L139.587 86.5526C145.009 87.3888 150.074 88.1845 154.735 88.7656L155.282 84.3741ZM140.262 82.1788L140.934 77.8045C136.367 77.1028 131.288 76.3083 125.826 75.5466L125.215 79.9297L124.604 84.3129C129.989 85.0639 134.992 85.8466 139.59 86.553L140.262 82.1788ZM125.215 79.9297L124.395 75.5809C121.88 76.0553 119.145 77.5227 117.022 78.8427C114.767 80.2445 112.613 81.8581 111.13 83.1142L113.99 86.4913L116.851 89.8683C118.023 88.8755 119.828 87.5202 121.695 86.3595C123.694 85.1169 125.244 84.428 126.035 84.2786L125.215 79.9297ZM113.99 86.4913L111.121 83.122C111.162 83.0875 111.204 83.0634 111.249 83.0471C111.291 83.0314 111.354 83.0159 111.444 83.0159V87.4415V91.867C113.388 91.867 115.327 91.1659 116.86 89.8605L113.99 86.4913ZM111.444 87.4415L111.444 83.0159C111.584 83.0159 111.761 83.0723 111.9 83.2405L108.487 86.0577L105.074 88.8749C106.733 90.8853 109.131 91.8668 111.443 91.867L111.444 87.4415ZM108.487 86.0577L111.831 83.1599C112.046 83.408 111.994 83.7498 111.791 83.9229L108.921 80.5538L106.052 77.1847C102.542 80.1741 102.111 85.4568 105.142 88.9555L108.487 86.0577ZM108.921 80.5538L111.736 83.9687C112.045 83.714 113.01 82.8998 114.408 81.8756L111.794 78.3047L109.18 74.7338C107.545 75.9305 106.393 76.9027 106.106 77.1389L108.921 80.5538ZM117.27 121.55L121.215 123.556C121.078 123.825 120.745 123.929 120.483 123.793L122.528 119.868L124.572 115.943C120.465 113.804 115.417 115.429 113.325 119.544L117.27 121.55ZM122.528 119.868L120.522 123.813C120.252 123.676 120.148 123.343 120.284 123.082L124.209 125.127L128.134 127.172C130.274 123.065 128.649 118.016 124.533 115.923L122.528 119.868ZM124.209 125.127L120.248 123.153C119.745 124.164 119.282 124.925 118.841 125.559L122.476 128.084L126.111 130.609C126.804 129.61 127.483 128.48 128.17 127.101L124.209 125.127ZM122.476 128.084L118.565 130.155C119.538 131.994 121.656 135.182 125.628 136.834L127.327 132.747L129.026 128.661C127.793 128.148 126.934 127.047 126.387 126.013L122.476 128.084ZM127.327 132.747L125.627 136.833C130.113 138.7 135.197 137.942 140.22 135.783L138.472 131.717L136.724 127.651C132.799 129.338 130.4 129.232 129.028 128.661L127.327 132.747ZM138.472 131.717L140.202 135.79C139.949 135.898 139.647 135.794 139.525 135.507L143.598 133.776L147.671 132.046C145.867 127.8 140.953 125.854 136.742 127.644L138.472 131.717ZM143.598 133.776H148.023V133.773H143.598H139.172V133.776H143.598ZM143.598 133.773L139.525 135.503C139.417 135.248 139.521 134.947 139.807 134.825L141.537 138.898L143.268 142.972C147.512 141.169 149.461 136.255 147.671 132.042L143.598 133.773ZM141.537 138.898L139.785 134.835C136.503 136.25 133.629 136.859 131.125 136.859V141.284V145.71C135.074 145.71 139.145 144.75 143.29 142.962L141.537 138.898ZM131.125 141.284L131.125 136.859C129.221 136.859 127.537 136.522 126.018 135.88L124.294 139.956L122.571 144.032C125.276 145.176 128.145 145.71 131.125 145.71L131.125 141.284ZM124.294 139.956L126.014 135.878C122.871 134.553 120.911 132.177 119.774 130.208L115.942 132.421L112.109 134.634C113.853 137.653 117.092 141.722 122.575 144.034L124.294 139.956ZM115.942 132.421L114.744 128.16C114.244 128.301 113.5 128.508 112.627 128.903L114.449 132.936L116.272 136.969C116.485 136.872 116.666 136.814 117.139 136.682L115.942 132.421ZM114.449 132.936L112.646 128.894C112.708 128.867 112.754 128.854 112.785 128.848C112.816 128.841 112.854 128.836 112.904 128.836L112.905 133.262L112.905 137.687C114.014 137.687 115.174 137.458 116.253 136.977L114.449 132.936ZM112.905 133.262V128.836C113.093 128.836 113.297 128.94 113.395 129.17L109.324 130.904L105.252 132.638C106.597 135.797 109.683 137.687 112.905 137.687V133.262ZM109.324 130.904L113.376 129.125C113.487 129.38 113.373 129.692 113.104 129.81L111.331 125.755L109.559 121.7C105.33 123.548 103.422 128.47 105.271 132.683L109.324 130.904ZM111.331 125.755L113.035 129.839C113.952 129.457 114.695 129.24 115.425 129.03L114.203 124.776L112.982 120.523C112.199 120.748 111.044 121.08 109.627 121.671L111.331 125.755ZM114.203 124.776L115.43 129.028C116.017 128.859 117.532 128.498 118.862 127.17C119.858 126.176 120.575 124.798 121.204 123.577L117.27 121.55L113.336 119.522C112.991 120.191 112.772 120.591 112.615 120.847C112.456 121.108 112.461 121.053 112.608 120.906C112.694 120.821 112.808 120.723 112.948 120.628C113.087 120.535 113.209 120.474 113.289 120.438C113.359 120.407 113.386 120.401 113.325 120.421C113.257 120.443 113.165 120.47 112.976 120.524L114.203 124.776ZM121.333 95.4073L125.327 97.3136C126.084 95.7286 127.038 94.6616 127.761 94.1433C128.627 93.5223 128.327 94.1585 127.391 93.7166L129.279 89.7139L131.167 85.7113C127.868 84.1555 124.612 85.5102 122.603 86.9503C120.452 88.493 118.614 90.8297 117.339 93.5009L121.333 95.4073ZM129.279 89.7139L127.354 93.6991C126.438 93.2565 126.742 92.6402 126.807 93.7C126.861 94.5888 126.636 96.0061 125.877 97.6038L129.874 99.503L133.872 101.402C135.148 98.7151 135.804 95.8072 135.641 93.1573C135.489 90.6784 134.477 87.3099 131.203 85.7287L129.279 89.7139ZM129.874 99.503L125.88 97.5966C125.128 99.1737 124.17 100.24 123.441 100.761C122.562 101.388 122.857 100.75 123.796 101.194L121.905 105.195L120.013 109.196C123.31 110.755 126.573 109.399 128.582 107.966C130.741 106.425 132.589 104.089 133.868 101.409L129.874 99.503ZM121.905 105.195L123.829 101.21C124.758 101.659 124.453 102.291 124.391 101.226C124.34 100.334 124.57 98.9099 125.332 97.3034L121.333 95.4073L117.334 93.5111C116.065 96.1894 115.402 99.0904 115.555 101.736C115.697 104.209 116.693 107.593 119.98 109.181L121.905 105.195ZM132.996 16.753L136.912 14.6904C136.102 13.1537 135.116 11.5603 133.715 10.3041C132.182 8.9289 130.394 8.16557 128.365 7.91407C126.499 7.68277 124.503 7.89449 122.452 8.2651C120.369 8.64154 117.89 9.24945 114.974 10.0005L116.078 14.2862L117.182 18.5719C120.108 17.8182 122.299 17.2871 124.026 16.9752C125.784 16.6574 126.739 16.6314 127.276 16.698C127.65 16.7443 127.718 16.8144 127.805 16.8933C128.026 17.0911 128.426 17.5722 129.081 18.8156L132.996 16.753ZM116.078 14.2862L114.96 10.0044C112.474 10.6538 109.705 11.3659 106.663 12.0201L107.594 16.3467L108.525 20.6733C111.767 19.9758 114.694 19.222 117.197 18.568L116.078 14.2862ZM107.594 16.3467L106.651 12.0228C97.9703 13.9155 92.4439 12.2427 87.4394 10.7495L86.1741 14.9903L84.9088 19.2311C90.26 20.8278 97.5845 23.0587 108.537 20.6707L107.594 16.3467ZM86.1741 14.9903L87.4527 10.7535C83.494 9.55876 79.2548 8.18538 73.7127 9.45828L74.7034 13.7715L75.694 18.0848C78.6652 17.4024 80.7755 17.9837 84.8954 19.2271L86.1741 14.9903ZM74.7034 13.7715L73.7337 9.4535C71.273 10.0061 69.1811 11.2114 67.5899 13.098C66.0647 14.9063 65.2177 17.0813 64.7177 19.2581C63.7522 23.4616 63.8314 28.9302 64.0163 34.8158L68.4397 34.6768L72.8631 34.5378C72.6698 28.386 72.6825 24.1202 73.3442 21.2395C73.6578 19.8743 74.0478 19.1697 74.3559 18.8045C74.5979 18.5175 74.9354 18.2552 75.673 18.0896L74.7034 13.7715ZM68.4397 34.6768L64.016 34.8043C64.0484 35.9309 64.0942 36.7079 64.0942 37.6055H68.5198H72.9454C72.9454 36.5482 72.8873 35.3777 72.8634 34.5493L68.4397 34.6768ZM68.5198 37.6055L68.0918 42.0103C78.0605 42.9788 88.8695 46.2088 100.857 51.8345L102.738 47.8282L104.618 43.8218C91.9834 37.8928 80.1815 34.2921 68.9477 33.2007L68.5198 37.6055ZM102.738 47.8282L103.057 52.2422C110.198 51.7246 131.902 50.3152 146.451 51.1882L146.716 46.7706L146.981 42.3529C131.758 41.4396 109.487 42.9018 102.418 43.4142L102.738 47.8282ZM146.716 46.7706H151.142V46.7667H146.716H142.291V46.7706H146.716ZM146.716 46.7667L150.825 45.1221C146.129 33.3902 140.15 20.8915 136.919 14.7044L132.996 16.753L129.073 18.8015C132.183 24.7567 138.034 36.9855 142.607 48.4113L146.716 46.7667Z" fill="var(--stroke-0, white)" mask="url(#path-5-outside-1_7352_11872)"/>
</g>
<path id="Vector_5" d="M84.7858 198.712C84.5968 198.792 84.5686 198.764 84.7858 198.712Z" fill="var(--fill-0, white)"/>
</g>
</svg>
