<svg preserveAspectRatio="none" width="100%" height="100%" overflow="visible" style="display: block;" viewBox="0 0 1349 247" fill="none" xmlns="http://www.w3.org/2000/svg">
<g id="Group">
<path id="Vector" d="M0 243.661L34.0929 0.0105179H150.404C199.533 0.0105179 227.944 25.7418 227.944 66.8565C227.944 97.6001 209.893 124.348 182.822 133.703L182.487 136.37C202.536 142.722 211.232 157.759 208.218 182.162L204.211 213.576C202.536 228.278 202.536 238.314 204.211 243.661H140.044C138.369 238.649 138.369 228.624 140.379 213.576L142.723 193.862C146.396 170.128 142.388 163.776 122.674 163.776H73.5445L62.5151 243.661H0ZM80.8781 110.974H124.326C147.389 110.974 160.093 98.9399 160.093 79.8954C160.093 62.5141 148.729 53.1593 129.673 53.1593H88.8932L80.8666 110.986L80.8781 110.974Z" fill="var(--fill-0, #FFC800)"/>
<path id="Vector_2" d="M253.698 0.0115603H315.867L295.148 145.068C291.141 173.144 307.182 191.865 335.593 191.865C364.004 191.865 382.39 174.818 386.397 145.738L407.116 0.0115603H469.285L447.896 149.41C443.554 180.489 430.85 204.557 409.796 221.604C388.742 238.65 362.341 247 330.246 247C296.488 247 271.091 237.31 253.375 217.584C235.659 197.87 229.307 171.792 233.996 139.374L253.71 0L253.698 0.0115603Z" fill="var(--fill-0, #FFC800)"/>
<path id="Vector_3" d="M453.059 243.661L487.152 0.0105179H558.34L623.846 154.757H626.191L632.208 86.2359L644.242 0.0105179H706.076L671.983 243.661H600.794L535.958 90.5899H533.613L527.596 156.766L515.562 243.661H453.059Z" fill="var(--fill-0, #FFC800)"/>
<path id="Vector_4" d="M690.553 243.661L724.646 0.0105179H795.835L861.341 154.757H863.686L869.703 86.2359L881.737 0.0105179H943.57L909.478 243.661H838.289L773.453 90.5899H771.108L765.091 156.766L753.057 243.661H690.553Z" fill="var(--fill-0, #FFC800)"/>
<path id="Vector_5" d="M928.037 243.661L962.13 0.0105179H1138.27L1130.57 53.1477H1016.94L1011.93 92.253H1107.86L1100.83 142.053H1004.57L997.886 190.512H1111.52L1104.16 243.65H928.026L928.037 243.661Z" fill="var(--fill-0, #FFC800)"/>
<path id="Vector_6" d="M1120.89 243.661L1154.99 0.0105179H1271.3C1320.43 0.0105179 1348.84 25.7418 1348.84 66.8565C1348.84 97.6001 1330.79 124.348 1303.72 133.703L1303.38 136.37C1323.43 142.722 1332.13 157.759 1329.11 182.162L1325.11 213.576C1323.43 228.278 1323.43 238.314 1325.11 243.661H1260.94C1259.26 238.649 1259.26 228.624 1261.27 213.576L1263.62 193.862C1267.29 170.128 1263.28 163.776 1243.57 163.776H1194.44L1183.41 243.661H1120.91H1120.89ZM1201.77 110.974H1245.22C1268.28 110.974 1280.99 98.9399 1280.99 79.8954C1280.99 62.5141 1269.62 53.1593 1250.57 53.1593H1209.79L1201.76 110.986L1201.77 110.974Z" fill="var(--fill-0, #FFC800)"/>
</g>
</svg>
